<svg xmlns="http://www.w3.org/2000/svg" viewBox="0 0 100 100">
  <!-- Background Circle with Cosmic Glow -->
  <defs>
    <radialGradient id="cosmicGlow" cx="50%" cy="50%" r="50%" fx="50%" fy="50%">
      <stop offset="0%" stop-color="#FFB347" stop-opacity="1" />
      <stop offset="50%" stop-color="#3B2167" stop-opacity="0.8" />
      <stop offset="100%" stop-color="#0A0526" stop-opacity="0.6" />
    </radialGradient>
    
    <filter id="glow" x="-50%" y="-50%" width="200%" height="200%">
      <feGaussianBlur stdDeviation="2.5" result="glow"/>
      <feMerge>
        <feMergeNode in="glow"/>
        <feMergeNode in="SourceGraphic"/>
      </feMerge>
    </filter>
  </defs>
  
  <!-- Cosmic Background -->
  <circle cx="50" cy="50" r="45" fill="url(#cosmicGlow)" />
  
  <!-- Stars -->
  <circle cx="20" cy="25" r="1" fill="white" opacity="0.8" />
  <circle cx="75" cy="20" r="1.5" fill="white" opacity="0.9" />
  <circle cx="85" cy="40" r="1" fill="white" opacity="0.7" />
  <circle cx="30" cy="75" r="1" fill="white" opacity="0.8" />
  <circle cx="15" cy="55" r="0.8" fill="white" opacity="0.6" />
  <circle cx="65" cy="80" r="1.2" fill="white" opacity="0.8" />
  
  <!-- Shining Star -->
  <path d="M80 15 L82 20 L87 22 L82 24 L80 29 L78 24 L73 22 L78 20 Z" fill="#FFD700" filter="url(#glow)" />
  
  <!-- Fluffy Bear Body -->
  <ellipse cx="50" cy="53" rx="28" ry="25" fill="#FFFFFF" stroke="#E6E6FA" stroke-width="1" />
  
  <!-- Ears -->
  <circle cx="30" cy="35" r="8" fill="#FFFFFF" />
  <circle cx="70" cy="35" r="8" fill="#FFFFFF" />
  
  <!-- Face -->
  <circle cx="40" cy="45" r="4" fill="#663300" /> <!-- Left eye -->
  <circle cx="60" cy="45" r="4" fill="#663300" /> <!-- Right eye -->
  <circle cx="42" cy="43" r="1.5" fill="white" /> <!-- Eye highlights -->
  <circle cx="62" cy="43" r="1.5" fill="white" />
  
  <!-- Nose -->
  <ellipse cx="50" cy="52" rx="3" ry="2" fill="#333333" />
  
  <!-- Mouth -->
  <path d="M45 56 Q50 60 55 56" stroke="#333333" stroke-width="1.5" fill="none" />
  
  <!-- Rosy Cheeks -->
  <circle cx="35" cy="52" r="4" fill="#FFB6C1" opacity="0.6" />
  <circle cx="65" cy="52" r="4" fill="#FFB6C1" opacity="0.6" />
  
  <!-- Paws Holding Heart -->
  <path d="M33 65 Q28 70 35 75 Q45 72 45 65" fill="#FFFFFF" />
  <path d="M67 65 Q72 70 65 75 Q55 72 55 65" fill="#FFFFFF" />
  
  <!-- Glowing Heart -->
  <defs>
    <radialGradient id="heartGlow" cx="50%" cy="50%" r="50%" fx="50%" fy="50%">
      <stop offset="0%" stop-color="#FFFF00" stop-opacity="1" />
      <stop offset="70%" stop-color="#FFA500" stop-opacity="0.8" />
      <stop offset="100%" stop-color="#FF4500" stop-opacity="0.7" />
    </radialGradient>
    
    <filter id="heartFilter" x="-50%" y="-50%" width="200%" height="200%">
      <feGaussianBlur stdDeviation="1.5" result="heartBlur"/>
      <feMerge>
        <feMergeNode in="heartBlur"/>
        <feMergeNode in="SourceGraphic"/>
      </feMerge>
    </filter>
  </defs>
  
  <!-- Heart with glow -->
  <path d="M50 78 L42 70 Q35 63 43 60 Q48 59 50 65 Q52 59 57 60 Q65 63 58 70 Z" 
        fill="url(#heartGlow)" 
        filter="url(#heartFilter)" />
</svg>
